<svg version="1.0" xmlns="http://www.w3.org/2000/svg" viewBox="0 0 30 30"><style>.st3{fill:#222221}</style><g id="avion"><path class="st3" d="M28.4 8.3c-.5-1-2.9-2.2-6-.9 0 0-15.4 6.8-15.8 7.1-.5.2-.8 0-1.2-.3-.8-.6-1.9-1.4-2.2-1.6-.5-.4-1.9-.1-1.5.7.4.8 1.5 3.4 2 4.4.6 1.5 4 1.1 9.9-1.5.5-.2 1.1-.5 1.7-.8l-1.5 7.9c-.2.8 0 1 .2.9l.9-.4c.5-.2 1.1-.9 1.4-1.6l4.3-9.2c4.2-2.1 8.1-4.1 7.8-4.7z"/><path class="st3" d="M7.4 9.2l3.5 2.1 3.9-1.7L10 8.1c-.8-.3-1.7-.3-2.2-.1l-.8.4c-.3.1-.3.4.4.8z"/></g></svg>