<svg xmlns="http://www.w3.org/2000/svg" width="1328" height="1024"><path d="M294.789 592.436l36.129 69.421c5.701 0 11.395.864 17.215 1.49l46.277-62.231c-32.602-10.615-66.561-13.806-99.621-8.676zm164.812 153.753c21.368 46.737 18.005 103.27-14.706 147.362-47.756 64.358-139.061 77.746-203.343 30.011-62.517-46.399-76.534-133.473-33.739-197.416l-35.671-68.841c-6.278 6.5-12.711 12.705-18.243 20.108-71.514 96.267-51.516 232.248 44.809 303.766 96.194 71.422 232.288 51.398 303.757-44.918 56.994-76.608 54.934-177.967 3.528-252.414l-46.389 62.344zm408.398-302.167c71.46-96.258 51.416-232.184-44.845-303.702-96.321-71.518-232.252-51.33-303.711 44.97-6.158 8.154-10.828 17.215-15.725 26.104 23.761 6.269 48.043 12.079 72.83 17.086.231-.22.231-.339.342-.571 47.756-64.291 139.043-77.856 203.51-30.093 64.336 47.756 77.804 139.225 30.035 203.452-47.803 64.467-139.18 77.969-203.452 30.093-23.016-16.995-39.267-39.889-48.72-64.916-26.837-5.075-53.179-11.121-78.824-17.73 8.612 54.256 37.335 104.979 84.813 140.144 96.194 71.533 232.175 51.589 303.748-44.845zm-728.835 66.457l161.79 310.55c4.843 9.393 14.135 15.552 24.734 16.342 10.48.928 20.733-3.695 27.004-12.185L523.324 595.4c1.343-1.746 2.389-3.668 3.28-5.701.44-.964.744-1.974 1.075-2.978.156-.506.397-.946.524-1.461.082-.302.082-.607.156-.919.384-1.553.644-3.098.782-4.697.046-.549.036-1.077.055-1.626.046-1.608.046-3.198-.165-4.797-.073-.571-.251-1.093-.348-1.654-.275-1.443-.433-2.896-.919-4.321l-92.553-270.548c78.988 23.117 168.574 42.877 256.458 48.447 10.773.864 20.635-4.157 26.653-12.307 3.391-4.504 5.551-10.147 5.838-16.131 1.15-16.983-11.783-31.461-28.604-32.711-110.201-6.995-225.586-38.527-316.11-69.568l-15.967-5.551c-49.954-17.648-91.213-34.652-118.095-46.322 21.084-33.115 44.845-86.801 26.324-141.619-5.469-16.022-22.849-24.743-38.925-19.265-15.954 5.532-24.566 22.784-19.207 38.869 14.706 43.42-22.509 96.765-37.896 113.289-6.5 7.077-9.467 16.986-7.639 26.562 1.71 9.567 7.986 17.777 16.635 21.874 4.246 2.085 46.893 22.556 111.746 47.452L148.059 449.41l-28.723-7.848c15.863-38.925 19.622-52.822 8.123-61.367-11.01-8.21-22.684 7.519-33.862 22.565 0 0-73.629 99.163-80.7 108.739-11.395 15.383-9.183 25.119 9.116 38.747 59.161 43.979 59.75 1.965 75.387-51.187l41.756 11.414zm193.473 238.786l-112.92-216.761 227.662 62.253-114.742 154.512zm23.803-477.678c2.032.699 4.089 1.397 6.149 2.105l88.446 258.592-239.558-65.515 144.961-195.182zM998.668 547.42h-18.741c-19.836 0-35.9 20.065-35.9 44.909V700.73c0 24.723 16.022 44.845 35.9 44.845h18.741v116.949h323.425v-419.4H998.677v104.302zm.073 161.736h-11.066c-12.527-.064-22.684-12.765-22.684-28.381v-68.444c0-15.671 10.147-28.329 22.684-28.329h11.066v125.154zm272.987-420.428h-222.599c-27.819 0-50.441 28.216-50.441 63.143v37.335h323.416v-37.335c0-34.927-22.565-63.143-50.375-63.143zm-273.06 652.439c0 34.927 22.62 63.134 50.441 63.134h222.599c27.804 0 50.375-28.207 50.375-63.134V915.34H998.667v25.827zM883.706 730.811h-84.624v-15.838c0-16.764-8.703-30.34-19.412-30.34h-46.966c-10.717 0-19.367 13.577-19.367 30.34v15.838h-84.642c-15.1 0-27.288 19.027-27.288 42.635v188.187c0 23.584 12.189 42.693 27.288 42.693h254.914c15.154.055 27.417-19.1 27.417-42.693V773.446c0-23.593-12.259-42.635-27.326-42.635zm-100.405 0h-54.147v-9.338c0-10.608 5.478-19.153 12.259-19.153h29.577c6.784 0 12.307 8.548 12.307 19.153v9.338z"/></svg>