<svg version="1.0" id="Calque_1" xmlns="http://www.w3.org/2000/svg" x="0" y="0" viewBox="0 0 30 30" xml:space="preserve"><style></style><path d="M27.8 23.1h-2.4v-.5c1.3-.8 2.1-2.3 2.1-3.9s-.9-3.1-2.1-3.9V9.5c0-.3-.3-.5-.7-.3l-2.4 1.6c-.2.1-.3.3-.3.5v2.9c-.4.1-.7.2-1.1.4-1.2-3-2-6.1-2.3-6.9-.1-.2-.3-.4-.5-.4h-2.9c-.3 0-.5.2-.5.5s.2.5.5.5h2.6c.2.7.5 2 1 3.5-3.5 1.8-4 5.2-4.1 6.5h-.3L10 9.4l.2-.1c1.5-.2 1.4-.7 1.4-.7 0-.5-.9-.4-.9-.4H7.5c-.3 0-.5.1-.5.1-.3.1-.1 1.2-.1 1.2.1.5.4.6.4.6.2.1.7 0 .7 0 .6-.2 1-.4 1.2-.4l1.2 2.5-1.7 1.7c-.7-.4-1.5-.6-2.3-.6-2.8 0-5.1 2.3-5.1 5.1 0 .2.2.4.4.5h.1c.1 2 1.3 3.6 3.1 4.2h-3c-.3 0-.5.2-.5.5s.2.5.5.5h26c.3 0 .5-.2.5-.5s-.2-.5-.6-.5zM20.5 16c.5 1 1 2 1.5 2.8v3.4c-1.6-.4-2.8-1.8-2.8-3.5.1-1.1.6-2 1.3-2.7zm6.1 2.7c0 1-.4 2-1.1 2.6V16c.6.8 1.1 1.7 1.1 2.7zM22 15.2v1.7c-.2-.5-.5-.9-.7-1.4.3-.2.5-.2.7-.3zM2.7 19.1l3.5.7h.1c.2 0 .3-.1.4-.2L9 16.3c.6.7 1 1.5 1 2.5 0 2-1.6 3.6-3.6 3.6s-3.5-1.5-3.7-3.3zm8.3-.4c0-1.3-.5-2.5-1.4-3.3l.2-.3c.1-.2.1-.5-.1-.7l-.2-.2 1.3-1.3 3 5.9c.1.2.3.3.4.3h1.1c.1 0 .3-.1.4-.2s.1-.2.1-.4-.1-4.1 3.4-6l.9 2.4c-1.1.8-1.8 2.2-1.8 3.7 0 2 1.3 3.7 3.1 4.4H7.9c1.8-.5 3.1-2.2 3.1-4.3z"/></svg>