<svg version="1.0" xmlns="http://www.w3.org/2000/svg" viewBox="0 0 30 30"><style>.st3{fill:#222221}</style><g id="velo"><circle class="st3" cx="16.7" cy="4.4" r="2"/><path class="st3" d="M18.9 18.4c.7 1.8 1.5 3.7 2.7 5.5.1.2.4.3.6.3.1 0 .3 0 .4-.1.3-.2.4-.7.2-1-1.4-2.2-2.4-4.8-3.1-6.9l-.2-.2c-.3-1-.5-1.8-.7-2.5l1.5.2h.1c.5 0 1-.4 1-.9 0-.3 0-.6-.2-.8.2-.1.3-.3.5-.5.2-.3.1-.8-.2-1-.3-.2-.8-.1-1 .2-.3.4-.8.6-1.2.8l-1.8-.2-1.4-3.1c-.1-.1-.1-.3-.3-.4v-.1l-2-1.4c-.3-.2-.8 0-1.1.5l-3.6 5.4c-.4.6-.6 1.2-.5 1.7-.2.1-.2.3-.2.6 0 1.4.6 1.3 1.5.9l.8.5-3.5 7.2c-.1.2-.1.5 0 .7.1.2.4.3.6.3h4c.1 0 .1.1.1.1.2.1.3.1.5.1.3 0 .5-.1.7-.2h1.6s.1 0 .1-.1c.1 0 .1-.1.2-.1l3.9-5.5zM14.7 22l-.1-.4 1.6-3.7c.2-.5.1-1-.2-1.4h2.3v.1L14.7 22zm-1.3-4.1l-.2.4-.3-.7.5.3zm1.4-7.4l1 2.2c.2.3.5.6.8.6l.7.1c.1.5.3 1.1.5 1.8h-3.9l-1-.7c.1-.1.1-.2.1-.3 0-.2-.1-.3-.3-.3l2.1-3.4zm-3.3 7.2l1 2.5-.3.7c-.2-.3-.4-.6-.7-.9l-.8 1.6c.1.1.1.2.2.3h.8l-.3.8v.1H9l2.5-5.1z"/><path class="st3" d="M7.8 26.9c-1.9 0-3.4-1.5-3.4-3.4 0-1.8 1.4-3.3 3.2-3.4l.8-1.6c-.2 0-.4-.1-.6-.1-2.8 0-5.1 2.3-5.1 5.1s2.3 5.1 5.1 5.1c2.2 0 4.1-1.4 4.8-3.4h-1.8c-.6 1-1.7 1.7-3 1.7zM22.1 18.5c-.2 0-.5 0-.7.1.2.5.4 1.1.7 1.6 1.9 0 3.4 1.5 3.4 3.4S24 27 22.1 27s-3.4-1.5-3.4-3.4c0-.7.2-1.3.5-1.8-.3-.6-.5-1.1-.8-1.7-.9.9-1.4 2.2-1.4 3.5 0 2.8 2.3 5.1 5.1 5.1s5.1-2.3 5.1-5.1-2.3-5.1-5.1-5.1z"/></g></svg>