<svg version="1.0" id="Calque_1" xmlns="http://www.w3.org/2000/svg" x="0" y="0" viewBox="0 0 30 30" xml:space="preserve"><style>.st3{fill:#222221}</style><path class="st3" d="M6.9 12L15 9.5l8.1 2.5c.4.2.9-.1.9-.6V8.1c0-.4-.3-.8-.8-.8H22c-.4 0-.8-.3-.8-.8 0-.4-.3-.8-.8-.8H9.5c-.4 0-.8.3-.8.8s-.3.8-.7.8H6.8c-.5 0-.9.4-.9.9v3.1c0 .5.5.9 1 .7z"/><path class="st3" d="M26.2 16c.1-.4-.2-.7-.5-.8L15.1 12H15h-.1L4.2 15.2c-.3.1-.6.4-.5.8.2 2.6 1.4 4.7 2.3 6 .2.3.2.8-.2 1.1l-1.3.9.6.9 2.7-1.8c.3-.2.6-.2.8 0l2.5 1.7c.3.2.6.2.8 0l2.5-1.7c.2-.1.9-.1 1.1 0l2.5 1.7c.2.2.5.2.8 0l2.5-1.7c.2-.2.5-.2.8 0l2.7 1.8.6-.9-1.3-.9c-.4-.3-.4-.8-.2-1.1.9-1.3 2.1-3.4 2.3-6z"/></svg>