<svg version="1.0" xmlns="http://www.w3.org/2000/svg" viewBox="0 0 30 30"><style></style><path d="M26.2 6.4h-1.1V4.2c0-1.2-1-2.3-2.3-2.3H7.1c-1.2 0-2.3 1-2.3 2.3v2.3H3.7c-.6-.1-1.1.5-1.1 1.1v4.5c0 .6.5 1.1 1.1 1.1s1.1-.5 1.1-1.1v11.3c0 .8.5 1.6 1.1 1.9v1.4C5.9 28 7 29 8.2 29s2.3-1 2.3-2.3v-1.1h9v1.1c0 1.2 1 2.3 2.3 2.3 1.2 0 2.3-1 2.3-2.3v-1.4c.7-.4 1.1-1.1 1.1-1.9V12.1c0 .6.5 1.1 1.1 1.1s1.1-.5 1.1-1.1V7.6c0-.6-.5-1.2-1.2-1.2zM11.6 4.2h6.8c.6 0 1.1.5 1.1 1.1 0 .6-.5 1.1-1.1 1.1h-6.8c-.6 0-1.1-.5-1.1-1.1 0-.6.5-1.1 1.1-1.1zm-4 19.2c-.9 0-1.7-.8-1.7-1.7 0-.9.8-1.7 1.7-1.7s1.7.8 1.7 1.7c0 .9-.7 1.7-1.7 1.7zm11.9-1.2h-9v-1.1h9v1.1zm2.8 1.2c-.9 0-1.7-.8-1.7-1.7 0-.9.8-1.7 1.7-1.7s1.7.8 1.7 1.7c0 .9-.8 1.7-1.7 1.7zM24 8.7v5.6c0 1.2-1 2.3-2.3 2.3H8.2c-1.2 0-2.3-1-2.3-2.3V6.4h3.5c.2.7.9 1.1 1.6 1.1h7.9c.7 0 1.4-.5 1.6-1.1H24v2.3z" fill="#222221" id="bus_1_"/></svg>