<svg version="1.0" id="Calque_1" xmlns="http://www.w3.org/2000/svg" x="0" y="0" viewBox="0 0 30 30" xml:space="preserve"><style></style><path d="M24.9 13c.6 0 1.1-.5 1.1-1.1s-.5-1.1-1.1-1.1h-1.6l-.5-3.4c-.1-.7-.6-1.3-1.7-1.6-1.3-.3-2.2-.7-6-.8h-.4c-2.8 0-5.1.5-6.4.8-.8.2-1.3.7-1.4 1.4l-.5 3.4H4.8c-.6 0-1.1.5-1.1 1.1S4.1 13 4.8 13H5c-.7.7-1.3 1.6-1.3 2.2 0 .9.7 3.9 1 5.1.1.3.3.6.5.9l.8.8v1.6c0 .8.6 1.6 1.4 1.8 1.1.2 2-.6 2-1.7v-.6h11v.6c0 1 .9 1.8 2 1.7.8-.1 1.4-.9 1.4-1.8V22l.8-.8c.2-.2.4-.5.5-.9.3-1.2 1-4.2 1-5.1 0-.6-.7-1.5-1.3-2.2h.1zM7.2 11.4L8 8.2c.2-.7.6-1.3 1.3-1.5 1.3-.5 3.2-.5 5.5-.5s4.2 0 5.5.5c.7.2 1.1.9 1.3 1.5l.8 3.2c.1.3-.1.6-.4.6-1.3.3-4.5.8-7.2.9-2.7 0-5.9-.6-7.2-.9-.3 0-.4-.3-.4-.6zm1.5 7.7c-1.2.6-2.8-.2-2.9-1.7-.2-1.6.9-2.1 2.2-1 1.6 1.4 2.2 2 .7 2.7zm9.4 2.8h-6.5c-.6 0-1.1-.5-1.1-1.1s.5-1.1 1.1-1.1h6.5c.6 0 1.1.5 1.1 1.1s-.5 1.1-1.1 1.1zm5.8-4.5c-.2 1.5-1.7 2.3-2.9 1.7-1.5-.7-.9-1.3.8-2.7 1.2-1.2 2.3-.7 2.1 1z" fill="#222221" id="voiture"/></svg>