<svg version="1.0" id="atterrissage" xmlns="http://www.w3.org/2000/svg" x="0" y="0" viewBox="0 0 90 90" xml:space="preserve"><style>.st0{fill:#373737}</style><path class="st0" d="M.2 86.3H90V90H.2zM17.1 38.8c11.6 3.9 67.3 23.5 68.5 20.1 1.2-3.5-2-12-12.5-15.7 0 0-7.8-2.3-17.4-5.1L36.9 5.7c-1.3-2.2-3.5-4.3-5.1-4.8l-3-1c-.9-.3-1.4.5-.5 3l8.6 29.6c-8-2.3-14.2-4.2-14.8-4.4-1.6-.6-5-5.9-5.3-7.7-.6-3.1-1.4-7.6-1.6-9-.4-2.3-4.3-4.7-5.3-1.9-1 2.9-.5 15.7-.5 15.7l-6.9-1.9c1.4 5 4.5 12.1 14.6 15.5z"/></svg>