<svg version="1.0" id="décollage" xmlns="http://www.w3.org/2000/svg" x="0" y="0" viewBox="0 0 90 90" xml:space="preserve"><style>.st0{fill:#373737}</style><path class="st0" d="M0 86.3h90V90H0zM11.2 48.8l-6.3 3.4c4.5 2.6 11.6 5.6 21.2 1.2 11.1-5.1 65-29.1 63.5-32.5-1.5-3.4-9.7-7.4-19.8-2.9 0 0-7.3 3.7-16.1 8.2L17.8 15.8c-2.4-.7-5.5-.7-7 0L8 17.1c-.8.4-.7 1.3 1.6 2.5l26.6 15.6c-7.4 3.8-13.2 6.7-13.8 7-1.6.7-7.7-.8-9.2-1.9-2.5-1.9-6.2-4.6-7.3-5.4-1.8-1.4-6.4-.5-5.1 2.3 1.3 2.7 10.4 11.6 10.4 11.6z"/></svg>