<svg version="1.0" id="Calque_1" xmlns="http://www.w3.org/2000/svg" x="0" y="0" viewBox="0 0 30 30" xml:space="preserve"><style></style><path d="M28.6 7.3c-.1-.5-.5-.9-1-.9h-2.3V4.2v-.4c0-.1-.1-.3-.1-.4 0-.1-.1-.2-.2-.3V3c-.1-.1-.1-.2-.2-.2l-.1-.1-.1-.1-.2-.2h-.1c-.1-.1-.2-.1-.3-.2-.1 0-.3-.1-.4-.1H6.5c-.2-.1-.3-.1-.4 0-.1 0-.2.1-.3.2h-.1c-.1 0-.2.1-.3.2l-.1.1-.1.1-.2.2V3c-.1.1-.2.2-.2.3 0 .1-.1.3-.1.4v2.6H2.3c-.5 0-.9.4-1 .9 0 .1-.1 3.7-.1 3.7 0 .6.5 1.1 1.1 1.1.6 0 1.1-.5 1.1-1.1V7.6h1.1v15.8c0 .6.2 1.2.7 1.6.1.1.3.3.4.3v1.4C5.6 28 6.7 29 7.9 29H8c1.2 0 2.3-1 2.3-2.3v-1.1h9.3v1.1c0 1.3 1.1 2.3 2.3 2.3h.1c1.2 0 2.3-1 2.3-2.3v-1.4c.2-.1.3-.2.4-.3.4-.4.7-1 .7-1.6V7.6h1.1V11c0 .6.5 1.1 1.1 1.1.6 0 1.1-.5 1.1-1.1 0 0 0-3.6-.1-3.7zM10.3 24.5H8c-.6 0-1.1-.5-1.1-1.1 0-.6.5-1.1 1.1-1.1h2.3c.6 0 1.1.5 1.1 1.1 0 .6-.5 1.1-1.1 1.1zm3.9-4.6C9 19.8 7 19 7 19c-1.1-.2-1.2-1.3-1.2-1.3V5.3c0-.6.5-1.1 1.1-1.1H23c.6 0 1.1.5 1.1 1.1v12.4s-.2 1.1-1.2 1.3c0 0-2 .8-7.2.9h-1.5zm4.3 3.5c0-.6.5-1.1 1.1-1.1h2.3c.6 0 1.1.5 1.1 1.1 0 .6-.5 1.1-1.1 1.1h-2.3c-.6 0-1.1-.5-1.1-1.1z" fill="#222221"/></svg>