<svg xmlns="http://www.w3.org/2000/svg" width="1024" height="1024"><path d="M841.39 892.814V428.978c0-27.942-26.328-50.664-58.754-50.664H248.29c-32.426 0-58.748 22.722-58.748 50.664v463.836c0 28.014 26.324 50.664 58.748 50.664h534.352c32.424 0 58.754-22.648 58.754-50.664h-.006zm-63.686 44.634H253.228c-31.828 0-57.664-22.168-57.664-49.574V433.922c0-27.346 25.836-49.586 57.664-49.586h524.476c31.822 0 57.658 22.24 57.658 49.586v453.944h.012c.006 27.418-25.842 49.58-57.668 49.58zM417.34 286.366l55.592-60.556v-40.442L427.49 230.81V124.856h-30.298V230.81l-45.442-45.442v45.442l55.52 55.556zm191.85 0h30.286V180.37l45.448 45.442V180.37l-55.592-55.514H619.26l-55.524 60.512v40.442l45.454-45.442zM392.12 534.86H276.016c-10.072 0-25.222 10.12-25.222 25.226v141.33h30.292v-100.99h15.15v262.542h30.286V721.632h15.072v141.336h30.37V600.426h15.15v100.99h25.222V565.164c0-15.184-10.064-30.304-20.214-30.304zm-58.092-15.15c19.558 0 35.37-15.806 35.37-35.328 0-19.486-15.812-35.328-35.37-35.328-19.486 0-35.292 15.848-35.292 35.328 0 19.516 15.806 35.328 35.292 35.328zm244.862 15.15H462.78c-10.072 0-25.222 10.12-25.222 25.226v141.33h30.292v-100.99H483v262.542h30.22V721.632h15.15v141.336h30.292V600.426h15.15v100.99H599.1V565.164c0-15.184-10.15-30.304-20.208-30.304zm-58.09-15.15c19.558 0 35.364-15.806 35.364-35.328 0-19.486-15.806-35.328-35.364-35.328-19.486 0-35.292 15.848-35.292 35.328 0 19.516 15.806 35.328 35.292 35.328zm239.858 15.15H644.554c-10.144 0-25.294 10.12-25.294 25.226v141.33h30.286v-100.99h15.15v262.542h30.292V721.632h15.154v141.336h30.286V600.426h15.15v100.99h25.226V565.164c-.006-15.184-10.076-30.304-20.15-30.304zm-58.08-15.15c19.468 0 35.28-15.806 35.28-35.328 0-19.486-15.812-35.328-35.28-35.328-19.492 0-35.304 15.848-35.292 35.328-.006 19.516 15.794 35.328 35.292 35.328z"/></svg>