<svg xmlns="http://www.w3.org/2000/svg" width="1024" height="1024"><path d="M401.59 227.83c57.49 0 104.128-46.66 104.128-104.17 0-57.426-46.638-104.086-104.128-104.086S297.484 66.234 297.484 123.66c0 57.51 46.618 104.17 104.106 104.17zm469.996 31.466H712.742a38.578 38.578 0 00-28.922 13.022L317.454 686.91c-27.942.668-86.83 1.836-144.026 1.836C59.576 688.746 0 770.21 0 850.676c0 40.398 14.69 78.042 41.36 106.006 20.7 21.702 58.344 47.744 120.07 47.744h185.76c11.018 0 21.536-4.84 28.88-13.02l377.99-428.03h105.546c63.144 0 101.542-26.208 122.574-48.16 26.962-28.132 41.82-65.776 41.82-106.092 0-74.454-52.336-149.828-152.414-149.828zm55.006 202.58c-15.318 15.942-38.478 24.374-66.984 24.374H736.7a38.491 38.491 0 00-28.88 13.02L329.808 927.3H161.43c-27.252 0-49.476-8.18-64.272-23.706-12.98-13.69-20.116-32.384-20.116-52.92 0-42.234 29.798-84.804 96.386-84.804 79.526 0 162.014-2.336 162.848-2.336 10.664-.336 20.742-5.008 27.794-13.022l366.034-414.174h141.48c52.084 0 75.372 36.56 75.372 72.786.002 20.366-7.26 39.064-20.364 52.752zM328.91 390.594v212.18l122.386-138.726V349.862c0-73.454-122.386-77.46-122.386 40.732z"/></svg>