<svg version="1.0" id="Calque_1" xmlns="http://www.w3.org/2000/svg" x="0" y="0" viewBox="0 0 30 30" xml:space="preserve"><style>.st3{fill:#222221}</style><path class="st3" d="M27.1 2.4L2.7 8.9c-.3.1-.4.3-.3.6.1.2.3.4.5.3l24.4-6.5c.2-.1.3-.4.3-.6-.1-.2-.3-.4-.5-.3zM17.6 12.8h-.9l-1-5.3-1.4.4-.9 5h-.9c-.2 0-.4.2-.4.4v.9H18v-.9c0-.3-.2-.5-.4-.5zm-2.8 0l.3-1.7.3 1.7h-.6zM22.9 15.1c-.4-.4-.9-.6-1.4-.6H8.6c-.5 0-1 .2-1.4.6-.3.4-.5.8-.6 1.4l-1.1 6v.5l1 3.7c.3 1 .9 1.9 1.9 1.9h13.3c1 0 1.6-.9 1.9-1.9l1-3.7v-.5l-1.1-6c-.1-.6-.3-1-.6-1.4zm-11.7 7.1c0 .3-.2.6-.6.6H7.5c-.3 0-.6-.3-.6-.6L8 16.5c0-.2.1-.3.2-.4.1-.1.3-.2.4-.2h2c.3 0 .6.2.6.6v5.7zm3.4 4.5c0 .3-.2.6-.6.6h-1.4c-.3 0-.5-.2-.5-.6V16.4c0-.3.2-.6.5-.6H14c.3 0 .6.2.6.6v10.3zm3.4 0c0 .4-.2.6-.5.6h-1.4c-.4 0-.6-.3-.6-.6V16.4c0-.4.3-.6.6-.6h1.4c.3 0 .5.3.5.6v10.3zm4.6-3.9h-3.1c-.4 0-.6-.3-.6-.6v-5.7c0-.4.3-.6.6-.6h2c.1 0 .3.1.4.2.1.1.2.2.2.4l1.1 5.7c0 .3-.3.6-.6.6z"/></svg>