<svg xmlns="http://www.w3.org/2000/svg" viewBox="0 0 512 512"><circle cx="256" cy="256" r="76.2"/><path d="M499.8 230.6h-42.4c-11.5-91.7-84.3-164.5-176-176V12.2c0-5.6-4.5-10.2-10.2-10.2h-30.5c-5.6 0-10.2 4.5-10.2 10.2v42.4c-91.7 11.5-164.5 84.3-176 176H12.2c-5.6 0-10.2 4.5-10.2 10.2v30.5c0 5.6 4.5 10.2 10.2 10.2h42.4c11.5 91.7 84.3 164.5 176 176v42.4c0 5.6 4.5 10.2 10.2 10.2h30.5c5.6 0 10.2-4.5 10.2-10.2v-42.4c91.7-11.5 164.5-84.3 176-176h42.4c5.6 0 10.2-4.5 10.2-10.2v-30.5c-.1-5.7-4.6-10.2-10.3-10.2zM256 408.4c-84 0-152.4-68.4-152.4-152.4S172 103.6 256 103.6 408.4 172 408.4 256 340 408.4 256 408.4z"/></svg>