<svg xmlns="http://www.w3.org/2000/svg" width="1024" height="1024"><path d="M787.692 118.15L512 0 275.692 118.15 0 0v905.852L275.692 1024 512 905.812l235.27 100.844v-.02l40.422 17.324L1024 905.812V0L787.692 118.15zm157.462 527.62l-118.846-97.29-113.98-98.708 232.826-129.458V645.77zM244.616 190.532l33.578 14.422L514.5 86.804l275.692 118.15 154.964-77.496v147.786L680.634 422.326 532.31 293.876 286 310.334 78.692 212v-92.542l165.924 71.074zm540.5 746.588L737.92 916.9C704.922 733.268 597.186 700.4 512 700.4c-21.384 0-38.154 24.844-78.77 1.96-68.654-38.652-46.654-144.766-157.538-150.958-65.682-65.678-148.876-78.778-197-80.222V342.756l184.462 87.5 228.5-15.23 258.616 223.8 194.884 159.628v58.63L785.116 937.12z"/></svg>