<svg version="1.0" id="Calque_1" xmlns="http://www.w3.org/2000/svg" x="0" y="0" viewBox="0 0 30 30" xml:space="preserve"><style>.st3{fill:#222221}</style><g id="metro"><circle class="st3" cx="11" cy="23.6" r="1.7"/><circle class="st3" cx="18.8" cy="23.6" r="1.7"/><path class="st3" d="M22.4 16.7c0-1.5-.5-5.2-.7-6.6 0-.3-.3-.6-.7-.6H8.8c-.3 0-.6.2-.7.6-.2 1.4-.7 5.1-.7 6.6 0 1.9 15 1.9 15 0z"/><path class="st3" d="M14.9 1.6C9.3 1.7 3.7 6.2 3.7 11.8v16.9h7.9c-.9 0-2.1-.5-2.8-.9-.4-.2-.7-.5-.9-.8-.6-1.2-1.9-4.2-1.9-8.5C6 12.9 7.1 8.4 7.1 8.4c.4-1.6 2.1-2.3 3.4-2.3h8.8c1.2 0 3 .6 3.4 2.3 0 0 1.1 4.5 1.1 10.1 0 4.3-1.3 7.3-1.9 8.5-.2.4-.3.6-.9.9-.8.5-2 .8-2.8.8h7.9V11.8c.1-5.6-5.6-10.1-11.2-10.2z"/></g></svg>