<svg xmlns="http://www.w3.org/2000/svg" width="1024" height="1024"><path d="M957.562 623c0-23.79-28.234-60.274-54.554-89.122h54.552V444.78H851.58l-27.702-178.22S690.242 222 512.002 222c-178.22 0-311.878 44.56-311.878 44.56l-27.72 178.22H66.44v89.098h54.54C94.666 562.726 66.44 599.21 66.44 623c0 44.558 44.56 222.758 44.56 222.758l44.56 44.562v66.862c0 36.892 29.928 66.818 66.818 66.818 36.914 0 66.84-29.926 66.84-66.818v-22.3h445.54v22.3c0 36.892 29.97 66.818 66.864 66.818s66.818-29.926 66.818-66.818V890.32l44.562-44.562s44.56-178.2 44.56-222.758zM823.878 489.33s-21.008 5.252-54.006 12.148c-14.24-16.718-42.834-30.438-73.494-36.332 0 0-16.57-3.732-8.656-20.22 9.608-13.004 15.542-27.716 15.958-32.502 0 0 14.878-11.748 15.746-29.33.948-17.518-3.256-18.322-3.256-18.322 6.306-19.148 8.322-90.936-37.802-82.362-2.456-4.826-9.08-9.308-17.674-11.868 52.882 4.918 93.964 15.918 118.626 40.58l44.558 178.208zm-185.72-220.5c-13.94 1.888-28.402 9.514-38.076 26.812-11.208 19.994-15.37 47.324-6.63 69.624-.288 1.648-3.048-1.588-4.08 8.656-.906 9.954 3.46 24.196 8.324 30.792 2.104 2.782 5.61 4.802 7.92 5.852 0 0 2.922 17.686 16.65 34.358 3.256 13.254-9.894 20.22-9.894 20.22-43.444 8.366-83.468 32.502-83.468 58.616v9.888c-5.7.146-11.342.23-16.902.23-5.554 0-11.19-.072-16.876-.202v-9.916c0-26.114-39.43-50.248-82.938-58.616 0 0-16.57-3.732-8.656-20.22 9.562-13.004 15.542-27.716 15.932-32.502 0 0 14.88-11.748 15.746-29.33.95-17.518-3.256-18.322-3.256-18.322 6.306-19.148 8.346-90.936-37.78-82.362-2.768-5.408-10.758-10.38-20.888-12.7 40.562-3.138 87.462-3.148 138.716-3.148 46.15.002 88.65.008 126.156 2.27zM244.66 311.122c20.642-20.644 52.92-31.712 93.942-37.66-8.588 4.204-16.608 11.254-22.71 22.18-11.21 19.994-15.394 47.324-6.656 69.624-.31 1.648-3.05-1.588-4.08 8.656-.932 9.954 3.48 24.196 8.346 30.792 2.082 2.782 5.566 4.802 7.874 5.852 0 0 2.968 17.686 16.674 34.358 3.256 13.254-9.872 20.22-9.872 20.22-32.752 6.302-63.554 21.562-76.754 39.872-30.636-5.658-49.922-9.882-49.922-9.882l43.158-184.012zm-1.134 490.12c-48.558 0-87.964-39.41-87.964-88.01s175.954-48.6 175.954 0-39.432 88.01-87.99 88.01zm402.156 89.076H378.34c-24.63 0-44.56-19.908-44.56-44.56 0-24.608 19.93-44.516 44.56-44.516h267.34c24.608 0 44.558 19.908 44.558 44.516.002 24.652-19.948 44.56-44.556 44.56zm44.56-177.086c0-48.6 175.932-48.6 175.932 0s-39.408 88.01-87.966 88.01-87.966-39.41-87.966-88.01z"/></svg>