<svg xmlns="http://www.w3.org/2000/svg" width="1024" height="1024"><path d="M873.664 85.334h128V0H703c-47.126 0-85.336 38.208-85.336 85.334v85.334H575c-23.562 0-42.668 19.104-42.668 42.666V384c0 23.562 19.106 42.666 42.668 42.666 23.582 0 42.664-19.104 42.664-42.666v426.668c0 31.5 17.25 58.708 42.668 73.5v54.5c0 47.126 38.208 85.332 85.332 85.332S831 985.792 831 938.668V896h170.664V768H831v-42.668h170.664V554.668h-256c-47.126 0-85.332-38.21-85.332-85.334V170.666H792.25c8.83 24.792 32.25 42.666 60.082 42.666h149.332v-42.666h-128C850.082 170.666 831 151.562 831 128s19.082-42.666 42.664-42.666zM724.33 682.668c35.334 0 64 28.664 64 64 0 35.332-28.666 64-64 64-35.33 0-64-28.668-64-64 0-35.336 28.67-64 64-64zm-274.872-46.25c41.626 0 75.354-33.75 75.354-75.376s-33.728-75.358-75.354-75.358c-41.624 0-75.354 33.73-75.354 75.358 0 41.626 33.73 75.376 75.354 75.376zM473.708 792c-2.02-95.708-47.854-140.5-47.854-140.5l-.084.032c-6.558 2.252-11.87 4.76-16.17 7.54-8.834 4.828-19.876 12.034-29.432 21.798-5.166-20.092-13.214-18.156-27.584-15.62-25.94 4.582-33.584 145.5-33.584 145.5s54.958 30.082 62.584 27c7.574-3.014 7.276-53.01 7.27-53.956 5.476 3.192 11.182 5.59 16.676 7.38-.262 25.252-4.548 54.476-17.298 88.324-52.94 140.418-16.292 144.5-16.292 144.5S475.728 887.668 473.708 792zm-14.272 115.958s31.98 76.542 47.876 115.626c44.646-22.04-12.874-174.414-23.416-185.832-5.292 31.916-24.46 70.206-24.46 70.206zm76.896-169.79s-25.208-5.418-62.606-39.5c0 0 12.626 32.332 15.94 64.664 41.792 19.586 71.772 17.75 84.226 2.668 12.44-15.082-37.56-27.832-37.56-27.832zm-385.54-101.75c41.626 0 75.354-33.75 75.354-75.376s-33.726-75.358-75.354-75.358c-41.626 0-75.354 33.73-75.354 75.358 0 41.626 33.73 75.376 75.354 75.376zM175.042 792c-2.02-95.708-47.854-140.5-47.854-140.5l-.084.032c-6.558 2.252-11.87 4.76-16.17 7.54-8.836 4.828-19.876 12.034-29.434 21.798-5.166-20.092-13.214-18.156-27.584-15.62-25.94 4.582-33.584 145.5-33.584 145.5s54.958 30.082 62.584 27c7.574-3.014 7.278-52.984 7.272-53.956 5.476 3.192 11.182 5.59 16.674 7.382-.26 25.252-4.546 54.474-17.298 88.322C36.626 1019.918 73.272 1024 73.272 1024s103.792-136.332 101.77-232zm-14.274 115.958s31.98 76.542 47.876 115.626c44.646-22.04-12.874-174.414-23.416-185.832-5.29 31.916-24.46 70.206-24.46 70.206zm76.898-169.79s-25.208-5.418-62.606-39.5c0 0 12.626 32.332 15.94 64.664 41.792 19.586 71.77 17.75 84.226 2.668 12.46-15.082-37.56-27.832-37.56-27.832z"/></svg>