<svg xmlns="http://www.w3.org/2000/svg" width="1024" height="1024"><path d="M940.55 481.462c-7.198-14.288-379.592-389.174-401.12-401.076-21.456-11.938-69.216-9.552-83.546 0C441.56 89.89 54.812 467.17 52.428 486.192c-2.384 19.15 0 33.474 14.366 45.416 14.33 11.932 33.43 11.932 50.11 9.552 1.88-.27 8.108-5.222 17.644-13.758v352.22c0 34.816 28.214 63.066 63.102 63.066h619.856c34.816 0 63.06-28.256 63.06-63.066h.048V541.984c14.264 4.662 33.388-.188 45.61-10.374 14.324-11.946 21.486-35.822 14.324-50.152zm-225.732-77.596c21.486 0 38.9 17.402 38.9 38.858 0 21.492-17.414 38.9-38.9 38.9s-38.9-17.402-38.9-38.9c0-21.456 17.414-38.858 38.9-38.858zm-200.112-.044c21.492 0 38.9 17.444 38.9 38.9 0 21.534-17.408 38.936-38.9 38.936s-38.9-17.408-38.9-38.936c0-21.456 17.408-38.9 38.9-38.9zm-205.622.044c21.492 0 38.9 17.402 38.9 38.858 0 21.492-17.408 38.9-38.9 38.9s-38.9-17.402-38.9-38.9c0-21.456 17.408-38.858 38.9-38.858zm86.18 277.822h-27.768V570.542h-16.678V859.58H317.43V703.95h-16.638v155.63H267.44V570.542h-16.68v111.152h-33.352V526.1c0-16.638 16.68-27.768 27.768-27.768h127.826c11.168 0 22.262 16.678 22.262 33.352v150.004zm205.612 0H573.12V570.542h-16.684V859.58h-33.352V703.95h-16.686v155.63h-33.346V570.542h-16.678v111.152h-33.346V526.1c0-16.638 16.678-27.768 27.81-27.768h127.784c11.168 0 22.25 16.678 22.25 33.352.006 16.596.006 150.004.006 150.004zm200.08 0h-27.812V570.542H756.46V859.58h-33.346V703.95h-16.678v155.63h-33.352V570.542h-16.65v111.152h-33.34V526.1c0-16.638 16.644-27.768 27.812-27.768h127.826c11.09 0 22.222 16.678 22.222 33.352.006 16.596.006 150.004.006 150.004z"/></svg>