<svg version="1.0" id="Calque_1" xmlns="http://www.w3.org/2000/svg" x="0" y="0" viewBox="0 0 30 30" xml:space="preserve"><style></style><path d="M25.1 10.4c0-.1 0-5.6-2.3-5.6H7.1c-2.3 0-2.3 5.5-2.3 5.5v.1c-.6 0-1.1.5-1.1 1.1v1.1c0 .6.5 1.1 1.1 1.1v6.8c0 1.8 1.6 2.7 2.3 3.1V25c0 .6.5 1.1 1.1 1.1s1.1-.5 1.1-1.1v-1.3l2.3.2h6.6l2.3-.2V25c0 .6.5 1.1 1.1 1.1s1.1-.5 1.1-1.1v-1.4c.7-.4 2.2-1.2 2.3-3.1v-6.8c.6 0 1.1-.5 1.1-1.1v-1.1c.1-.6-.4-1.1-1-1.1zM8.8 21.7c-.9 0-1.7-.8-1.7-1.7s.8-1.7 1.7-1.7 1.7.8 1.7 1.7-.7 1.7-1.7 1.7zm9.5-1.2h-6.6v-1.1h6.6v1.1zm2.8 1.2c-.9 0-1.7-.8-1.7-1.7s.8-1.7 1.7-1.7c.9 0 1.7.8 1.7 1.7s-.8 1.7-1.7 1.7zm2.8-9.4c0 .8-.7 1.5-1.5 1.5h-15c-.8 0-1.5-.7-1.5-1.5V7.6c.1-.3.4-.6.7-.6h16.8c.3 0 .6.3.6.6l-.1 4.7z" fill="#222221" id="navette"/></svg>