<svg version="1.0" id="Calque_1" xmlns="http://www.w3.org/2000/svg" x="0" y="0" viewBox="0 0 30 30" xml:space="preserve"><style>.st3{fill:#222221}</style><path class="st3" d="M11.9 6.2H17.7c.2 0 .3-.2.2-.3l-.7-1.5c-.1-.3-.3-.4-.6-.4H13c-.3 0-.5.1-.6.4l-.7 1.5c-.1.1 0 .3.2.3zM25.9 16.8c-.2-.6-.7-1.2-1.2-1.8h.1c.6 0 1.1-.5 1.1-1.1 0-.6-.5-1.1-1.1-1.1h-1.4l-.5-3.6c-.1-.7-.6-1.2-1.4-1.4-1.4-.3-3.7-.8-6.5-.8h-.4c-2.8 0-5.1.5-6.4.8-.8.2-1.3.7-1.4 1.4l-.5 3.6H4.8c-.6 0-1.1.5-1.1 1.1 0 .6.5 1.1 1.1 1.1h.1c-.6.6-1 1.3-1.2 1.8 0 .1-.1.3-.1.4 0 .9.7 3.9 1 5.1.1.4.3.7.5.9l.8.8v1.6c0 .9.6 1.7 1.4 1.8 1.1.2 2-.6 2-1.7v-.6h11v.6c0 1.1.9 1.9 2 1.7.8-.1 1.4-.9 1.4-1.8V24l.8-.8c.2-.2.4-.5.5-.9.3-1.2 1-4.2 1-5.1 0-.1 0-.2-.1-.4zm-2.1 2.6c-.1 1.1-1 1.8-1.9 1.9-.3 0-.6-.1-.9-.2-1.5-.7-.9-1.3.7-2.7.8-.6 1.4-.7 1.8-.4.3.3.4.8.3 1.4zM8.6 21.1c-.3.1-.6.2-.9.2-.9-.1-1.8-.8-1.9-1.9-.1-.6 0-1.1.3-1.4.4-.3 1.1-.2 1.8.4 1.6 1.4 2.2 2 .7 2.7zM7.7 14c-.3 0-.5-.3-.4-.6l.8-3.2c.2-.6.6-1.3 1.3-1.5 1.3-.5 3.1-.5 5.4-.5 2.3 0 4.1 0 5.4.5.7.2 1.1.9 1.3 1.5l.8 3.2c.1.3-.1.6-.4.6-1.3.3-4.4.8-7.1.9-2.7-.1-5.8-.6-7.1-.9zm3.9 9.9c-.6 0-1.1-.5-1.1-1.1 0-.6.5-1.1 1.1-1.1H18c.6 0 1.1.5 1.1 1.1 0 .6-.5 1.1-1.1 1.1h-6.4z"/></svg>