<svg version="1.0" id="Calque_1" xmlns="http://www.w3.org/2000/svg" x="0" y="0" viewBox="0 0 30 30" xml:space="preserve"><style>.st3{fill:#222221}</style><g id="train"><path class="st3" d="M20.3 24.6H18l3.4 3.4h2.3zM6.2 28h2.2l3.4-3.4H9.6zM23.6 13.1l.1-5.3c0-1-.3-2.1-.9-2.9-.7-.9-1.8-1.8-3.4-2h-8.8c-1.7.2-2.8 1.1-3.5 2-.6.8-.9 1.8-.9 2.9l.1 5.3c-.1 9 2.9 10.4 5.2 10.4h6.8c2.3 0 5.4-1.4 5.3-10.4zm-11.9 7.5c-1.1 0-3.3-2-3.3-3.9 0-1.2 2.2-1.2 3.1-.1.9 1 1.6 2.8 1.6 2.8.5 1.7-1.4 1.2-1.4 1.2zm3.2-10.3c-4.8 0-6.5-2.6-6.5-3.7 0-.5.2-1 .5-1.4.3-.5.9-.9 1.6-.9h8.8c.6 0 1.2.3 1.6.9.2.4.5.9.5 1.4 0 1.1-1.7 3.6-6.5 3.7zm1.8 9.1s.7-1.8 1.6-2.8 3.1-1.1 3.1.1c0 1.9-2.2 3.9-3.3 3.9 0 0-1.9.5-1.4-1.2z"/></g></svg>