<svg version="1.0" id="Calque_1" xmlns="http://www.w3.org/2000/svg" x="0" y="0" viewBox="0 0 30 30" xml:space="preserve"><style>.st3{fill:#222221}</style><g id="tram"><path class="st3" d="M7 29h2.3l3.4-3.4h-2.3zM19.5 25.6h-2.2l3.3 3.4h2.3zM9.1 23l.2.2c.6.6 1.5 1.3 2.8 1.3h5.7c1.3 0 2.8-1.2 3-1.5.3-.3.5-.7.6-1 .5-1.3 1.1-3.3 1.1-5.9 0-4.7-.9-8.5-.9-8.5-.3-1.4-1.8-1.9-2.8-1.9h-1.9l1.9-2.8h1.4c.3 0 .5-.2.5-.5s-.2-.5-.5-.5H9.8c-.3 0-.5.2-.5.5s.2.5.5.5h1.4L13 5.7h-1.9c-1 0-2.5.4-2.8 1.9 0 0-.9 3.8-.9 8.5 0 2.6.6 4.6 1.1 5.9.1.3.3.6.6 1zm3.4-1.4c-.7.7-1.9.7-2.7 0-.7-.7-.7-1.9 0-2.7.8-.7 3.4 2 2.7 2.7zm7.6 0c-.7.7-1.9.7-2.7 0-.7-.7 1.9-3.4 2.7-2.7.7.8.7 2 0 2.7zm-8-18.7h5.7l-1.9 2.8h-2l-1.8-2.8zM9.2 9c0-.3.3-.5.6-.5h10.4c.3 0 .5.2.6.5.2 1.2.6 4.2.6 5.5 0 1.6-2.2 3.4-6.3 3.4H15c-4.1 0-6.3-1.9-6.3-3.4-.1-1.3.3-4.3.5-5.5z"/></g></svg>