<svg data-name="Calque 1" xmlns="http://www.w3.org/2000/svg" viewBox="0 0 24 24"><path d="M12 0a12 12 0 1012 12A12 12 0 0012 0z" fill="#373737"/><path d="M10.92 13.36v-.75a3.19 3.19 0 01.29-1.43 3.33 3.33 0 011-1.14 4.07 4.07 0 00.84-.8 1.35 1.35 0 00.26-.81.69.69 0 00-.28-.57 1.14 1.14 0 00-.72-.21 5 5 0 00-2.56.92l-1-2.35A6.6 6.6 0 0112.55 5a3.6 3.6 0 012.54.85 3 3 0 01.91 2.3 3.79 3.79 0 01-.41 1.85 4.59 4.59 0 01-1.31 1.45 5.29 5.29 0 00-1 .86 1.09 1.09 0 00-.19.64v.44h-2.17zm-.31 4a1.78 1.78 0 01.39-1.24 1.45 1.45 0 011.14-.43 1.41 1.41 0 011.11.44 1.78 1.78 0 01.39 1.22 1.72 1.72 0 01-.4 1.22 1.43 1.43 0 01-1.1.43 1.47 1.47 0 01-1.14-.43 1.71 1.71 0 01-.39-1.22z" fill="#fff" stroke="#fff" stroke-miterlimit="10" stroke-width=".5"/></svg>