<svg version="1.1" id="Calque_1" xmlns="http://www.w3.org/2000/svg" x="0" y="0" width="24" height="24" xml:space="preserve"><style>.st0{fill:#353535}</style><path class="st0" d="M18 11.8l-2.5-1.9-1.8-3.8c-.2-.5-.8-.9-1.4-.9-.4 0-.7.1-1 .3l-4 3.3c-.2.2-.3.4-.4.7L6.3 13c-.1.6.3 1.1.8 1.2h.2c.5 0 .9-.3 1-.8l.6-3.2L10.3 9l-.9 3.4-1.3 5-2.6 4c-.4.6-.2 1.3.3 1.7.2.1.4.2.7.2.4 0 .8-.2 1-.5l2.8-4.1c.1-.2.2-.2.2-.4l.8-3 2.3 2.6 1.1 4.7c.1.6.6 1 1.2 1h.3c.7-.2 1.1-.8.9-1.5L16 17.4c-.1-.4-.2-.6-.4-.8l-2.8-3.2.7-2.8.3.6c.1.2.2.3.3.4l2.8 2c.5.3 1.1.2 1.4-.2.3-.6.2-1.2-.3-1.6z"/><circle class="st0" cx="13" cy="2.7" r="2.2"/></svg>