<svg xmlns="http://www.w3.org/2000/svg" width="1024" height="1024"><path d="M922.842 771.47v-.088h-79.498c-7.668 0-28.61 2.414-37.572-33.262-8.962-35.678-42.83-171.922-42.83-171.922s-8.66-40.438-45.672-40.438c-28.828 0-143.57-.086-209.99-.172-40.072 0-50.068-9.824-58.75-42.056-3.404-12.754-9.608-38.09-12.948-51.878-2.154-10.168 9.35-9.48 9.35-9.48h177.026v-.516c26.714-.69 48.172-22.922 48.172-50.414s-21.458-49.724-48.172-50.414H421.75c-4.934 0-14.542-4.136-16.912-13.272-2.37-9.048-6.356-25.68-6.356-25.68s-2.8-8.446.28-12.84c51.166-20.768 87.274-70.836 87.274-129.436C486.036 62.478 423.538 0 346.454 0S206.87 62.478 206.87 139.606c0 55.842 32.834 104.014 80.25 126.334 2.156 2.5 4.244 5.774 5.064 9.048 11.634 46.966 61.874 249.48 73.228 294.744 12.862 51.19 51.75 56.876 60.56 57.306 8.834.344 167.418 0 209.344 0 33.262 0 41.878 16.376 46.836 34.04 4.954 17.582 38.218 154.43 44.078 177.266s24.344 34.554 38.522 34.554c14.218 0 158.09-.172 158.09-.172v-.344c27.016-.344 48.862-22.836 48.862-50.5 0-27.748-21.846-50.154-48.862-50.412zM688.14 870.14c-1.378-24.644-22.406-43.432-47.05-42.052-13.96.776-26.028 7.842-33.652 18.356-47.57 52.654-112.502 83.678-183.492 87.642-147.166 8.186-273.566-104.964-281.73-252.066-5.084-91.434 36.194-177.976 110.434-231.664 15.016-7.842 24.882-23.958 23.87-41.968-1.356-24.646-22.426-43.518-47.052-42.14-9.264.516-17.73 3.878-24.582 9.048-2.132.862-3.36 1.552-3.36 1.552C101.626 448.46 46.064 564.39 52.85 686.932c10.902 196.482 179.612 347.376 376.05 336.518 96.906-5.43 185.388-48.604 249.158-121.766l-.344-.346c7.068-8.36 11.116-19.302 10.426-31.198z"/></svg>