<svg version="1.0" id="Calque_1" xmlns="http://www.w3.org/2000/svg" x="0" y="0" viewBox="0 0 30.8 51.3" xml:space="preserve"><style>.st0{fill:#222221}</style><path class="st0" d="M25.8 14.3H5c-2.8 0-5 2.2-5 5v27c0 2.8 2.2 5 5 5h20.8c2.8 0 5-2.2 5-5v-27c0-2.7-2.2-5-5-5zM8.6 44.6c0 1-.8 1.9-1.9 1.9-1 0-1.9-.8-1.9-1.9V21.1c0-1 .8-1.9 1.9-1.9 1 0 1.9.8 1.9 1.9v23.5zm8.7 0c0 1-.8 1.9-1.9 1.9-1 0-1.9-.8-1.9-1.9V21.1c0-1 .8-1.9 1.9-1.9 1 0 1.9.8 1.9 1.9v23.5zm8.6 0c0 1-.8 1.9-1.9 1.9-1 0-1.9-.8-1.9-1.9V21.1c0-1 .8-1.9 1.9-1.9 1 0 1.9.8 1.9 1.9v23.5zM25.9 4.9h-3.1V3.7c0-2-1.6-3.7-3.7-3.7h-7.3c-2 0-3.7 1.6-3.7 3.7V5H5C2.3 5 0 7.2 0 9.9h30.8c0-2.8-2.2-5-4.9-5zm-6.6 0h-7.7V3.7c0-.1.1-.2.2-.2h7.3c.1 0 .2.1.2.2v1.2z"/></svg>