<svg version="1.0" id="Calque_1" xmlns="http://www.w3.org/2000/svg" x="0" y="0" viewBox="0 0 1284.1 192" xml:space="preserve"><style>.st0{fill:#e07f20}.st1{fill:#adb72c}.st2{fill:#56b5db}.st3{fill:#008aca}.st4{fill:#89c6e5}.st7{fill:#c6ba85}.st8{fill:#566671}.st9{fill:#fff}</style><path class="st0" d="M674.9 98.5c-6.2 0-12.2 2-17.2 5.6-.1-3.3-2.8-6-6.1-5.9s-6 2.8-5.9 6.1v65.8c0 3.3 2.7 6 6 6s6-2.7 6-6v-19.3c12.9 9.5 31.1 6.8 40.6-6.1 9.5-12.9 6.8-31.1-6.1-40.6-5-3.6-11.1-5.6-17.3-5.6zm17.1 29c0 9.5-7.7 17.1-17.1 17.1-9.5 0-17.1-7.7-17.1-17.1s7.7-17.1 17.1-17.1c9.5 0 17.1 7.6 17.1 17.1z"/><path class="st1" d="M728.4 86.4c0-3.4-2.8-6.2-6.2-6.2-3.4 0-6.2 2.8-6.2 6.2v54.9c.1 8.6 7.2 15.5 15.8 15.5 1.6 0 3.2-.2 4.8-.7 3.2-1 4.9-4.4 3.9-7.6 0-.1 0-.1-.1-.2-1.1-3.2-4.5-4.9-7.7-3.9-.3.1-.7.1-1 0-1.9 0-3.5-1.5-3.5-3.4V86.4h.2z"/><path class="st2" d="M801.3 98.6c-3.2 0-5.8 2.5-5.9 5.6-12.9-9.5-31.1-6.8-40.6 6.1-9.5 12.9-6.8 31.1 6.1 40.6 10.2 7.6 24.2 7.6 34.5 0 .1 3.3 2.9 5.8 6.2 5.7s5.8-2.9 5.7-6.2v-46c-.1-3.1-2.7-5.7-6-5.8zm-6 29c0 9.5-7.7 17.1-17.1 17.1-9.5 0-17.1-7.7-17.1-17.1s7.7-17.1 17.1-17.1c9.4 0 17.1 7.7 17.1 17.1z"/><path class="st0" d="M1268.9 80.3c-3.4 0-6.1 2.7-6.2 6v17.6c-13.1-9.2-31.2-6.1-40.4 7s-6.1 31.2 7 40.4c10.2 7.2 23.9 7.1 34-.4.1 3.3 2.9 5.8 6.2 5.7s5.8-2.9 5.7-6.2v-64c-.1-3.4-2.9-6.1-6.3-6.1zm-22.8 64.4c-9.5 0-17.1-7.7-17.1-17.1 0-9.5 7.7-17.1 17.1-17.1 9.5 0 17.1 7.7 17.1 17.1 0 9.5-7.7 17.1-17.1 17.1zM821.4 130.2c1.2 15.1 14.5 26.4 29.6 25.2 4.6-.4 9.1-1.9 13-4.5v8.8c0 1.9-1.6 3.4-3.5 3.4-.3.1-.7.1-1 0-3.2-1-6.6.7-7.7 3.9-1.1 3.1.6 6.6 3.7 7.7.1 0 .1 0 .2.1 1.6.5 3.2.7 4.8.7 8.6.1 15.7-6.8 15.8-15.5v-56.3c-.7-3.2-3.8-5.2-7-4.5-2.5.6-4.4 2.7-4.6 5.3v24.8c-.6 8.7-8.1 15.2-16.8 14.6-7.8-.5-14.1-6.8-14.6-14.6l-.2-25.6c-.7-3.2-3.8-5.2-7-4.5-2.5.6-4.4 2.7-4.6 5.3-.2.1-.2 25.1-.1 25.7z"/><path class="st1" d="M945.6 104.5v-1c-.9-3.2-4.3-4.9-7.4-4-2.2.7-3.9 2.6-4.2 4.9-12.8-9.6-31-7.1-40.6 5.7-9.6 12.8-7.1 31 5.7 40.6 10.1 7.6 24 7.8 34.3.5v8.4c0 1.9-1.6 3.4-3.5 3.4-.3.1-.7.1-1 0-3.2-1-6.6.7-7.7 3.9-1.1 3.1.6 6.6 3.7 7.7.1 0 .1 0 .2.1 1.6.5 3.2.7 4.8.7 8.6.1 15.7-6.8 15.8-15.5v-55.4zm-29 40.2c-9.5 0-17.1-7.7-17.1-17.1s7.7-17.1 17.1-17.1c9.5 0 17.1 7.7 17.1 17.1 0 9.5-7.6 17.1-17.1 17.1z"/><path class="st2" d="M999 99.1h-.6c-6.6-1.8-13.7-.9-19.7 2.5-1.6.8-3.1 1.7-4.5 2.7-.1-3.3-2.8-5.9-6.1-5.8-3.3.1-5.9 2.8-5.8 6.1v45.9c-.1 3.3 2.4 6 5.7 6.2s6-2.4 6.2-5.7v-23.5c0-1.5.2-2.9.6-4.4 1.6-8.6 9.9-14.2 18.5-12.6.4.1.9.2 1.3.3h.6c.6.2 1.3.3 1.9.3 3.4-.2 6-3.2 5.8-6.6-.1-2.4-1.6-4.5-3.9-5.4z"/><path class="st0" d="M1033.1 156.5c-16.1 0-29.2-13.1-29.2-29.2s13.1-29.2 29.2-29.2 29.2 13.1 29.2 29.2c-.1 16.1-13.1 29.2-29.2 29.2zm0-45.9c-9.2 0-16.7 7.5-16.7 16.7s7.5 16.7 16.7 16.7 16.7-7.5 16.7-16.7-7.5-16.7-16.7-16.7z"/><path class="st1" d="M1125.7 98.6c-3.4 0-6.2 2.8-6.3 6.2V127.5c0 9.2-7.5 16.7-16.7 16.7s-16.7-7.5-16.7-16.7v-22.6c0-3.4-2.8-6.2-6.2-6.2-3.4 0-6.2 2.8-6.2 6.2v22.6c0 16.1 13 29.1 29.1 29.2 6.1 0 12.1-1.9 17.1-5.5.9 3.3 4.3 5.2 7.6 4.3 2.7-.8 4.6-3.3 4.5-6.1v-44.3c.1-3.7-2.6-6.5-6.2-6.5.1 0 .1 0 0 0z"/><path class="st2" d="M1176.2 98.6c-6.1 0-12.1 1.9-17 5.5-.9-3.3-4.3-5.2-7.6-4.3-2.7.8-4.6 3.3-4.5 6.1v44.3c0 3.4 2.8 6.2 6.2 6.2 3.4 0 6.2-2.8 6.2-6.2v-22.6c0-9.2 7.5-16.7 16.7-16.7s16.7 7.5 16.7 16.7v22.6c0 3.4 2.8 6.2 6.2 6.2 3.4 0 6.2-2.8 6.2-6.2v-22.6c0-16-13.1-29-29.1-29zM40.6 153.3c.9 0 1.5-.7 1.5-1.5V94.3c0-.9-.7-1.5-1.5-1.5-.9 0-1.5.7-1.5 1.5v57.4c0 .9.7 1.6 1.5 1.6z"/><path class="st3" d="M40.6 154.3c1.4 0 2.6-1.2 2.6-2.6v-12.9c-.2-1.4-1.5-2.4-2.9-2.3-1.2.1-2.1 1.1-2.3 2.3v12.9c.1 1.4 1.2 2.6 2.6 2.6z"/><path class="st3" d="M30.1 156.2l-1.4-12.3c-.1-.8.5-1.6 1.3-1.8h21c.9 0 1.5.7 1.5 1.6v.2l-1.4 12.3c-.1.7-.8 1.3-1.5 1.3h-18c-.8 0-1.4-.6-1.5-1.3z"/><path class="st4" d="M48.8 155.3l1.2-11h-6.7l-1.2 11zM32.5 155.3l-1.3-11H38l1.2 11z"/><path d="M5.1 166.9c1.4-8.6 13-9.9 13-9.9 1.8-.1 3.5-.9 4.6-2.3 4.4-3.9 11.1-.3 11.1-.3 4.3 1 8.7 1.3 13.1.8.7-.2 1.3-.5 1.9-1 1.5-1.1 3.7-1 5 .4 1.5.5 3.2.1 4.3-1.1 2.6-3.4 8.5-1.4 8.5-1.4l12.8 1.9c2.3.6 4.8-.5 5.8-2.7l7.7-48.5h40.4l7.5 47.8v-.2s0 1.4 3.4 1.1c5.6-1.7 11.4-2.4 17.2-2.2 3.3.4 6.5 1.2 9.5 2.4 5.5 2.6 10.4 6.5 14.3 11.2 1.1 2.3 3.2 10.7-21.4 11.4 0 0-27.1-1.9-28.5 2.2 0 0-1.4 16-51.8 5.3-14-4.1-28.4-6.9-42.9-8.6 0 0-10.3-.4-12.3 2.6-.9 1.5-2.3 2.6-3.9 3.2-1.1.4-2.3.7-3.6.7 0 .2-19.3 3.1-15.7-12.8z" fill="#f2df91"/><path d="M90.9 136.9c.7-.4 1.7-.2 2.1.5 2.5 4.2 5.8 7.9 9.7 10.9 12.2 9.5 27.3 10.6 33.7 2.4 2-2.7 3-6.1 2.7-9.5l1.6 8.2c-.5 1.2-1.2 2.3-1.9 3.3-3.8 4.5-9.6 7-15.5 6.6-8.3-.3-16.3-3.2-22.7-8.5-4.2-3.2-7.7-7.1-10.5-11.6-.5-.7-.3-1.7.5-2.1.1-.2.2-.2.3-.2z" opacity=".59" fill="#c6ba85"/><path class="st7" d="M151.8 151.5l2.4-2.1c2.4-.3 4.9-.3 7.4 0 3.1.3 6.1 1.1 9.1 2.2 0 .4-.1.8-.3 1.2-3.9 3.7-9.5 5.1-14.7 3.6-2.2-.8-3.6-2.7-3.9-4.9zM72 157.6c-10.9.4-11.1-5.8-11.1-5.8l.8-.2c1.7-.2 3.4 0 5.1.5l9.7 1.4c1.2 4.4-4.5 4.1-4.5 4.1z"/><path class="st8" d="M85.5 82v-.7c-.1-4.9-1.4-9.7-3.9-13.9-3.7-6.9-5.9-14.6-6.3-22.5-.6-20.4 15.4-37.5 35.8-38.1 20.4-.7 37.5 15.3 38.1 35.7v2.4c-.4 7.9-2.6 15.6-6.3 22.6-2.4 4.2-3.8 9-3.9 13.8v.8c0 9.4 15.5 29.1 14.6 29 6.3 5.5 10 13.4 10 21.7v18c0 3.3-2.7 6-6 6s-6-2.7-6-6v-18c.4-9.2-6.7-17-15.9-17.5-9.2-.4-17 6.7-17.5 15.9v1.6h-12c.4-9.2-6.7-17-15.9-17.5-9.2-.4-17 6.7-17.5 15.9v19.6c0 3.3-2.7 6-6 6s-6-2.7-6-6v-18c0-8.4 3.6-16.3 10-21.7 4.3-1.5 8.2-4 11.3-7.4 1.4-1.7-.7-5 .4-7 2.3-4.6 3.3-9.6 3-14.7z"/><ellipse class="st9" cx="123.6" cy="75.9" rx="6.9" ry="8.8"/><ellipse class="st9" cx="100.1" cy="75.9" rx="6.9" ry="8.8"/><path d="M110.4 135.8l18.9-38.3 10.4-11.4c2.9 10.1 14.7 25.1 13.9 25 2.1 1.8 3.9 3.9 5.4 6.2-1.4 5.1-4 9.7-7.7 13.3-1.1-9.1-9.3-15.7-18.5-14.6-8.5 1-14.9 8.3-14.7 16.8l-11.9 5.7 4.2-2.7z" fill="#414f56"/><path d="M94.5 92.6c.3-1.7 37-1.7 37.3 0 0 0 7.7 47.9 7.7 48.1 0 3.7-11.6 6.6-26.3 6.6s-26.3-3-26.3-6.6c0-.2 7.6-48.1 7.6-48.1z" fill="#efbf8f"/><ellipse class="st0" cx="113.2" cy="92.6" rx="18.6" ry="3"/><path class="st8" d="M139.1 78.7c-.4 3.2.8 6.5 3.3 8.6l-3.9 1.2-2.3-4.4 1.1-4.6 1.8-.8zM35.7 101c5.2-16.4 22.7-25.5 39.1-20.3 6.3 2 11.8 5.9 15.7 11.3l-1.2 5.2-2.2 6.8h2.2v7.4l-9.4 3.2-5.8 3.9.2 1-6.5-5.1c2.1-2.7 4.8-4.9 7.7-6.6 3.7-2.2 4.9-7 2.7-10.6-.7-1.1-1.6-2-2.7-2.7-8.8-5.6-20.4-3-26 5.8-.9 1.4-1.6 3-2.1 4.6-1.1 3.3-4.6 5-7.8 4-3.2-1.2-5-4.7-3.9-7.9z"/><path class="st8" d="M85.5 81.1c0 1.6-1.2 2.8-2.8 2.9-.6 0-1.1-.2-1.6-.5v3.3l5.2 1.4 1.9-3.2-2.7-3.9z"/><path class="st1" d="M123.5 156.1c5.9.4 11.7-2.1 15.5-6.6 4.4-5.6 4.6-13.9.5-22.2-.4-.8-1.3-1.1-2.1-.7s-1.1 1.3-.7 2.1c3.5 7.2 3.4 14.3 0 19-6.3 8.2-21.4 7.1-33.7-2.4-3.9-3-7.2-6.7-9.7-10.9-.5-.7-1.4-.9-2.2-.4-.6.4-.8 1.3-.5 1.9 2.7 4.5 6.3 8.4 10.5 11.6 6.4 5.2 14.2 8.2 22.4 8.6z"/><path class="st8" d="M124.6 131.9c16.6 0 30.1-11.1 30.1-24.7 0-10.4-7.7-19.6-19.3-23.2-2.3 2.2-3.6 5.3-3.4 8.6l.6 3.6c5.9 2.1 9.9 6.4 9.9 11 0 6.7-8.2 12.3-17.8 12.3-1.6 0-3.2-.2-4.8-.5-3.4-.4-6.5 1.9-6.9 5.3-.4 3.1 1.5 6 4.5 6.8 2.3.5 4.7.8 7.1.8z"/><circle transform="matrix(.00855 -1 1 .00855 44.122 201.465)" cx="123.7" cy="78.5" r="3"/><circle transform="matrix(.00855 -1 1 .00855 48.477 200.552)" class="st9" cx="125.4" cy="75.8" r="1.9"/><circle transform="matrix(.00855 -1 1 .00855 20.6 177.74)" cx="99.9" cy="78.5" r="3"/><circle transform="matrix(.00855 -1 1 .00855 24.955 176.825)" class="st9" cx="101.6" cy="75.8" r="1.9"/><path class="st8" d="M242.5 99.6c-6.2 0-12.1 2-17.1 5.7-.5-3.2-3.4-5.4-6.6-5-2.7.4-4.8 2.6-5 5.3v44.9c0 3.1 2.4 5.6 5.4 5.8h.7c3.2 0 5.8-2.6 5.8-5.8V128c.4-9.3 8.4-16.5 17.7-16 8.7.4 15.6 7.4 16 16v22.6c.4 3.2 3.3 5.5 6.5 5.1 2.7-.3 4.8-2.4 5.1-5.1V128c0-15.7-12.8-28.4-28.5-28.4zM434.9 99.9c-3.2 0-5.8 2.6-5.8 5.8v44.9c-.4 3.2 1.9 6.1 5.1 6.5 3.2.4 6.1-1.9 6.5-5.1.1-.4.1-.9 0-1.3v-44.9c-.1-3.2-2.6-5.9-5.8-5.9z"/><circle class="st8" cx="434.9" cy="87.4" r="6.5"/><path class="st8" d="M516 99.9c-3.2 0-5.8 2.6-5.8 5.8v44.9c-.4 3.2 1.9 6.1 5.1 6.5s6.1-1.9 6.5-5.1c.1-.4.1-.9 0-1.3v-44.9c0-3.2-2.6-5.9-5.8-5.9z"/><circle class="st8" cx="516" cy="87.4" r="6.5"/><path class="st8" d="M412 103.8c-1.1-3-4.5-4.5-7.5-3.4-1.5.5-2.6 1.7-3.3 3.1l-14.9 33-15-33.2c-1.5-2.9-5-4-7.9-2.6-2.7 1.4-3.9 4.6-2.8 7.4l20.3 45c1.3 2.9 4.8 4.2 7.7 2.9 1.3-.6 2.3-1.6 2.9-2.9l20.3-44.8c.7-1.4.8-3 .2-4.5zM338.2 99.4c-3.1 0-5.7 2.5-5.8 5.6-12.7-9.4-30.6-6.7-39.9 6-9.4 12.7-6.7 30.6 6 39.9 10.1 7.5 23.9 7.5 33.9 0 .5 3.2 3.4 5.4 6.6 4.9 2.7-.4 4.8-2.6 5-5.4v-45.2c-.1-3.1-2.6-5.7-5.8-5.8zm-22.8 45.4c-9.3 0-16.9-7.6-16.9-16.9 0-9.3 7.6-16.9 16.9-16.9 9.3 0 16.9 7.6 16.9 16.9v.1c-.1 9.3-7.6 16.8-16.9 16.8zM590.3 99.4c-3.1 0-5.7 2.5-5.8 5.6-12.7-9.4-30.6-6.7-39.9 6s-6.7 30.6 6 39.9c10.1 7.5 23.9 7.5 33.9 0 .5 3.2 3.4 5.4 6.6 4.9 2.7-.4 4.8-2.6 5-5.4v-45.2c0-3.1-2.6-5.7-5.8-5.8zm-5.9 28.6c0 9.3-7.6 16.9-16.9 16.8-9.3 0-16.9-7.6-16.8-16.9 0-9.3 7.5-16.8 16.8-16.8s16.9 7.5 16.9 16.8v.1zM485.6 144.6c-2.1.5-4.2-.9-4.6-2.9 0-.2-.1-.3-.1-.5v-30.1h6.6c3.2-.4 5.5-3.3 5.1-6.5-.3-2.7-2.4-4.8-5.1-5.1h-6.6V86.2c-.5-3.2-3.5-5.4-6.8-4.9-2.5.4-4.4 2.4-4.9 4.9v13.2h-5.7c-3.2.4-5.5 3.3-5.1 6.5.3 2.7 2.4 4.8 5.1 5.1h5.7v30c.1 8.5 7.1 15.4 15.6 15.4 1.5 0 3-.2 4.4-.7 3-1.1 4.6-4.5 3.5-7.5-.9-3-4.1-4.6-7.1-3.6z"/></svg>