<svg version="1.0" id="picto_docs" xmlns="http://www.w3.org/2000/svg" x="0" y="0" viewBox="0 0 20 20" xml:space="preserve"><style>.st0{fill:#383838}</style><path class="st0" d="M19.2 3c-5.6-1.7-8.4.4-9.4 1.4C8.8 3.4 6 1.3.4 3c-.3.1-.4.3-.4.5v12.6c0 .2.1.3.2.4.1.1.3.1.4.1 6-1.6 8.7 1.4 8.8 1.6l.1.1.1.1H9.9s.1 0 .1-.1l.1-.1c.1-.1 2.8-3.1 8.8-1.6.1 0 .3 0 .4-.1.1-.1.2-.2.2-.4V3.5c0-.2-.1-.4-.3-.5zM3.9 15.1c-.9 0-1.9.1-2.9.3V3.8c5.5-1.6 7.8.9 8.3 1.5v11.4c-1-.7-2.8-1.6-5.4-1.6zm14.6.3c-4.3-1-7 .4-8.3 1.3V5.3c.5-.6 2.9-3.1 8.3-1.5v11.6z"/><path class="st0" d="M11.9 5.7c-.2.1-.4.4-.3.6.1.2.3.3.5.3h.2c.8-.3 2.4-.8 4.4-.4.3 0 .5-.1.6-.4 0-.3-.1-.5-.4-.6-2.3-.4-4.1.1-5 .5zM16.8 7.3c-2.2-.4-4 .1-4.9.5-.2.1-.4.4-.3.6.1.2.3.3.5.3h.2c.8-.3 2.4-.8 4.4-.4.3.1.5-.1.6-.4-.1-.3-.3-.6-.5-.6zM16.8 9.3c-2.2-.4-4 .1-4.9.5-.2.1-.4.4-.3.6.1.2.3.3.5.3h.2c.8-.3 2.4-.8 4.4-.4.3.1.5-.1.6-.4-.1-.3-.3-.5-.5-.6zM16.8 11.4c-2.2-.4-4 .1-4.9.5-.2.1-.4.4-.3.6.1.2.3.3.5.3h.2c.8-.3 2.4-.8 4.4-.4.3.1.5-.1.6-.4-.1-.3-.3-.6-.5-.6z"/></svg>