<svg version="1.1" id="Calque_1" xmlns="http://www.w3.org/2000/svg" x="0" y="0" width="40" height="40" xml:space="preserve"><style>.st0{fill:#353535}</style><path class="st0" d="M38.2 7.2l-5.1-5.1c-.5-.5-1.1-.7-1.7-.7h-1.6v11.9c0 .9-.7 1.6-1.6 1.6H11.4c-.9 0-1.6-.7-1.6-1.6V1.4H3.9C2.1 1.4.7 2.8.7 4.6v31.9c0 1.8 1.4 3.2 3.2 3.2h31.9c1.8 0 3.2-1.4 3.2-3.2V8.9c-.1-.7-.3-1.3-.8-1.7zm-2.4 27.3c0 1.1-.9 1.9-1.9 1.9H5.8c-1.1 0-1.9-.9-1.9-1.9V21.7c0-1.1.9-1.9 1.9-1.9h28.1c1.1 0 1.9.9 1.9 1.9v12.8z"/><path class="st0" d="M22.7 12.1h2.9c.3 0 .6-.3.6-.6V4.8c0-.3-.3-.6-.6-.6h-2.9c-.3 0-.6.3-.6.6v6.7c0 .3.3.6.6.6z"/></svg>