<svg version="1.1" id="Calque_1" xmlns="http://www.w3.org/2000/svg" xmlns:xlink="http://www.w3.org/1999/xlink" x="0" y="0" width="233" height="122" xml:space="preserve"><style>.st0{fill:none}.st1{fill:#566671}.st2{fill:#fff}.st5,.st6{fill:none;stroke:#677e89;stroke-width:.7087;stroke-linecap:round;stroke-linejoin:round;stroke-miterlimit:10}.st6{fill:#f4f4f4}.st8{fill:#619fc1}.st9{fill:#7ab3d8}.st10{fill:#414f56}.st11{fill:#556671}</style><pattern y="244" width="13.5" height="13.5" patternUnits="userSpaceOnUse" id="SVGID_48_" viewBox="0 -13.5 13.5 13.5" overflow="visible"><path class="st0" d="M0-13.5h13.5V0H0z"/><path class="st0" d="M0-13.5h13.5V0H0z"/><path class="st1" d="M0 0v-1.1c.6 0 1.1.5 1.1 1.1H0zM0-13.5h1.1c0 .6-.5 1.1-1.1 1.1v-1.1zM0-3.4v-2.2c.6 0 1.1.5 1.1 1.1 0 .6-.5 1.1-1.1 1.1zM0-7.9v-2.2c.6 0 1.1.5 1.1 1.1S.6-7.9 0-7.9z"/><path class="st1" d="M0 0v-1.1c.6 0 1.1.5 1.1 1.1H0zM0-13.5h1.1c0 .6-.5 1.1-1.1 1.1v-1.1z"/><g><circle class="st1" cx="4.5" cy="-9" r="1.1"/><circle class="st1" cx="4.5" cy="-4.5" r="1.1"/><path class="st1" d="M5.6 0H3.4c0-.6.5-1.1 1.1-1.1S5.6-.6 5.6 0zM3.4-13.5h2.2c0 .6-.5 1.1-1.1 1.1s-1.1-.5-1.1-1.1z"/></g><g><circle class="st1" cx="9" cy="-9" r="1.1"/><circle class="st1" cx="9" cy="-4.5" r="1.1"/><path class="st1" d="M10.1 0H7.9c0-.6.5-1.1 1.1-1.1s1.1.5 1.1 1.1zM7.9-13.5h2.2c0 .6-.5 1.1-1.1 1.1s-1.1-.5-1.1-1.1z"/></g><g><path class="st1" d="M13.5 0h-1.1c0-.6.5-1.1 1.1-1.1V0zM13.5-13.5v1.1c-.6 0-1.1-.5-1.1-1.1h1.1z"/><path class="st1" d="M13.5-13.5v1.1c-.6 0-1.1-.5-1.1-1.1h1.1zM13.5 0h-1.1c0-.6.5-1.1 1.1-1.1V0zM13.5-10.1v2.2c-.6 0-1.1-.5-1.1-1.1s.5-1.1 1.1-1.1zM13.5-5.6v2.2c-.6 0-1.1-.5-1.1-1.1s.5-1.1 1.1-1.1z"/></g></pattern><path class="st2" d="M1.3.3h230.2V114H1.3z"/><pattern id="SVGID_1_" xlink:href="#SVGID_48_" patternTransform="matrix(1 0 0 -1 124.042 -16841.828)"/><path opacity=".15" fill="url(#SVGID_1_)" d="M1.3.3h230.2V124H1.3z"/><path class="st2" d="M1.3.3v85.5H5v-5l5 .3.2 9.5 3.8-.3.2-18 4.5-.2.3-13.3h4.5v8.5l4.7-.2-.2-17h4.5v17.7l8.5-.7.5-7.8 4.5-.2v3.7l5 .5-1.3 4.8 9.3-.8.2 10h5.3l-.3 4 4.8 1v-9.2h4.5v3.2l4-.7.7 6.2 8 .5V58.8h5v13.5H96l-.5-30.2 4.5-1.8.2 22.8 13 .2.8-14.2 3.2.2 1.3 4.3v9.5h9l-.5-4.5 5.7.3-.7 9h4.3l-.3-41.3 4.3 1 .4 35.6h5v-9l4-.3.3 18.3h4.5l-.2-13.1h4.7l-.2 4.1h4.9l-.4 9.4h4.9l-.2 8.5 4.8.1-.3-5.3 4.2 1.3v-4.8h4.6l.5-23.5h4v18.8l4.5-.1.2 8.6 4.8.2v-4.5h4v-8.8h5l.4-22h12.8v17.4l4.5.3.5 9.2 4 .2-.5-4.4 5.4-.3V.3z"/><path fill="#fff" stroke="#677e89" stroke-width=".709" stroke-linecap="round" stroke-linejoin="round" stroke-miterlimit="10" d="M230.2 94.4l-1.7-1.2-2.2-.6-3.3 1.5V71.2h-9.2v-7H206v28.5l-3-.2v-23h-6.5v20l-2.5-.1V62.2h-10v22l-4 1.1v3.6h-4.2V67.7H168v13.1h-1.3v2.9h-2.2V57h-10.2v19.5h-8.5V72h-10.5v20.6l-2.8.1V85h-9.6v-2.8h-5.4v3.1l-3.3.7v3.6h-4.4v-8.1h-9v2.9h-2.4v2.8H96v1.7h-2.4V88l-3.8-1.3v-2.8h-3.1v6.3h-2v2.9h-2.4v-6.6h-1.1v-4.1h-3.1v4.1h-2.4v10.9H70l-1.4-5.3v-.6l-2.3-.8v-1.6h-1.9v3.8h-1.2v1.7h-1.4v-4h-3.6v-1.7h-3.3v1.9l-2 .4v2.2h-2.7v-4.9h-5.4v1.7h-1.5V92h-1.4v.9h-1.4v-.5l-2.3-.8v-1.7h-1.9v3.9h-1.2v1.7h-1.5v-4H33V89h-1.9v2.5h-1.4v6.6h-5.2l-1.9 2.9v2.1H21v-1.9h-1.5v1.9h-1.3v1.4l-1.7-1.4-3.3-1.8-2.1 3-1.1-.8-6.1 5.6"/><path class="st5" d="M154.3 67v23.4"/><path class="st6" d="M160.4 59.4h1.9v1.9h-1.9zM160.4 63.4h1.9v1.9h-1.9zM160.4 67.4h1.9v1.9h-1.9zM160.4 71.4h1.9v1.9h-1.9zM156.4 59.4h1.9v1.9h-1.9zM156.4 63.4h1.9v1.9h-1.9zM156.4 67.4h1.9v1.9h-1.9zM214.1 73.9h1.9v1.9h-1.9zM218.1 73.9h1.9v1.9h-1.9zM214.1 77.9h1.9v1.9h-1.9zM218.1 77.9h1.9v1.9h-1.9zM218.1 81.9h1.9v1.9h-1.9zM210 65.9h1.9v1.9H210zM210 69.9h1.9v1.9H210zM210 73.9h1.9v1.9H210z"/><path class="st2" d="M231.3 124l.1-28.8-111.8 2.3-115 12.1-1.6-.2v.2l-1.8.3.5 13.8z"/><path class="st5" d="M145.8 72v32"/><path d="M151.2 80.1c-.5-1.3-2-1.9-3.3-1.3l-22.3 9.3c-.2-.2-.4-.3-.5-.5 0 0 .1 0 .1-.1 1.3-.5 7.5-2.9 11.2-8.6.4-.5.8-1 1.1-1.6l6.5-2.7c1.3-.5 1.9-2 1.3-3.3-.5-1.3-2-1.9-3.3-1.3l-1 .4c2.5-7.7-.9-12.1-.9-12.1v-.1c-.6-1-1.4-2-2.3-2.8-4.1-3.9-9.5-5-14.5-3.5-9.8 3.2-11 11.3-11 11.3-.2.8-.3 1.5-.5 2.2.1-.5-.2-1-.7-1.2l-.8-.3c-.1-.1-.3-.1-.4-.1-.9-3.9-4.7-4.5-4.7-4.5-.3 0-.7.2-.8.5V60.1c0 .4-.1 1.5.3 2.6.2.7.6 1.4 1.2 2h-.7c-2.5.2-4 2-4 2-.1.1-.2.3-.1.5 0 .2.1.4.2.5 0 0 2.9 2.4 6.4.7.1.4.3.7.7.8l.8.3c.2.1.6.1.6.1 0 .3.1 1 .3 2-.6 2-1.1 3.2-1.2 3.4 0-.1-.1-.1-.2-.2-3.4-2.3-9.6-2.9-13.5-1.4-6.7 2.5-13.8 10.9-21.7 7.1-.4-.2-.7.1-.8.4-2.1 6-6.3 10.7-12 13.5-.6.3-.2 1.1.4 1 .1.1.1.1.2.1 10.4 3.5 17.4-2.1 26.1-7.2 3-1.7 6.1-3 9.3-3.8l-.1.1L76 95.7c-1.2.7-1.7 2.2-1 3.4.4.7 1 1.1 1.7 1.3.6.1 1.1 0 1.7-.2L104.9 86h.2c.2 0 .2.2.2.3s-.1.1-.1.2l-27.7 16.9c-.1.1-.3.2-.4.3l-.3.3c-.2.3-.3.6-.4.9-.1.6-.1 1.3.3 1.9s1 1 1.6 1.1 1.2 0 1.8-.3l27.7-16.9c.1 0 .2-.1.3 0 .2 0 .4.3.3.5 0 .1-.1.2-.2.3l-23.5 16.4c-1.1.8-1.4 2.3-.6 3.5.4.5.9.9 1.6 1 .6.1 1.3 0 1.9-.4l26.2-18.2c2.7-2 5.1-2.3 5.1-2.3 1.1.9 2.4 1.6 3.7 1.8 1.5.3 3.1.2 4.7-.4l22.5-9.4c1.3-.7 1.9-2.1 1.4-3.4zm-27 8.2z" opacity=".15" fill="#556671"/><g><path class="st8" d="M101.3 27.7c-.3-.2-.3-.7-.1-1 0 0 3.4-4 8.2-.7.2.1.3.3.3.5s-.1.4-.2.6c-4.1 3.9-8.1.6-8.2.6z"/><path class="st9" d="M109.8 26.5c0-.2-.1-.4-.3-.5-4.8-3.3-8.2.7-8.2.7-.2.3-.2.7.1 1 0 0 .2.2.5.4 2.9-3.2 6.8-2.5 6.8-2.5l-.1 2.4c.3-.2.7-.5 1-.8.1-.3.2-.5.2-.7z"/><path class="st9" d="M105.2 19.3c-.4-.1-.7.2-.8.6 0 .1-.8 5.2 4.8 6.7.2.1.4 0 .6-.1.2-.1.3-.3.3-.5.3-5.9-4.9-6.7-4.9-6.7z"/><path class="st10" d="M116.8 44.4c-1.3-.3-2.6-.9-3.7-1.8-1-.9-1.2-2.5-.3-3.5s2.5-1.2 3.5-.3c.9.8 2.1 1 3.2.6L142 30c1.3-.5 2.7.1 3.3 1.3.5 1.3-.1 2.7-1.3 3.3L121.5 44c-1.6.6-3.2.7-4.7.4z"/><path class="st11" d="M140.1 18.3c-.7-1.1-1.5-2-2.4-2.9-4.1-3.9-9.5-5-14.5-3.5-9.8 3.2-11 11.3-11 11.3-1.4 7-3.4 11.7-3.4 11.7h-.6c-1.3 2.1-2.8 3.7-3.7 4.5-.2.2-.4.3-.7.5-1.1.5-1.4 1.1-1.4 1.6L76 55.6c-1.2.7-1.7 2.2-1 3.4.4.7 1 1.1 1.7 1.3.6.1 1.1 0 1.7-.2l26.5-14.2h.2c.2 0 .2.2.2.3s-.1.1-.1.2L77.5 63.3c-1.2.7-1.6 2.3-.8 3.4.4.6 1 1 1.6 1.1s1.2 0 1.8-.3l27.7-16.9c.1 0 .2-.1.3 0 .2 0 .4.3.3.5 0 .1-.1.2-.2.3L84.7 67.8c-1.1.8-1.4 2.3-.6 3.5.4.5.9.9 1.6 1 .6.1 1.3 0 1.9-.4l26.2-18.2c2.7-2 5.1-2.3 5.1-2.3l.3-.8c2.4-.7 4.7-1.7 6-3 1.3-.5 7.5-2.9 11.2-8.6 9.7-13 3.7-20.7 3.7-20.7z"/><circle transform="rotate(-30 127.647 42.1)" class="st11" cx="127.6" cy="42.1" r="1.6"/><ellipse transform="rotate(-57.886 127.372 40.758)" class="st2" cx="127.4" cy="40.8" rx="4.1" ry="3.3"/><circle transform="rotate(-30 127.543 42.133)" class="st11" cx="127.5" cy="42.1" r="1.5"/><path class="st9" d="M135.8 39.7c-.9-.7-2-1.7-3.1-3.1 0 0-1.9-3-6.2-4-12.6-2.2-15.2-8-15.2-8 0 1-.7 2.8-1.2 4-.1.3-.2.5-.3.8 0 0-.6 8.3 15.3 16.1.9.4 1.7.8 2.3 1.1 2.2-1.2 5.8-3.3 8.4-6.9zm-10.5 4.4c-1.5-.9-1.8-3.3-.6-5.2s3.4-2.7 4.9-1.7c1.5.9 1.8 3.3.6 5.2s-3.4 2.7-4.9 1.7z"/><path d="M125.9 48.2c-1.4-1.3-3-2.4-4.9-3.2l-.1-.1c-5-2.3-8.8-5.3-11.9-9.8 0-.1-.1-.3-.3-.4-3.4-2.3-9.6-2.9-13.5-1.4-6.7 2.5-13.8 10.9-21.7 7.1-.4-.2-.7.1-.8.4-2.1 6-6.3 10.7-12 13.5-.6.3-.2 1.1.4 1 .1.1.1.1.2.1 10.4 3.5 17.4-2.1 26.1-7.2 5.7-3.3 11.8-4.9 18.5-4.8 6.1.2 14.5 1.1 19 5.5.7.7 1.5-.2 1-.7z" fill="#c73b51"/><path class="st11" d="M122.7 53.1c-1.3-.3-2.6-.9-3.7-1.8-1-.9-1.2-2.5-.3-3.5s2.5-1.2 3.5-.3c.9.8 2.1 1 3.2.6l22.5-9.4c1.3-.5 2.7.1 3.3 1.3.5 1.3-.1 2.7-1.3 3.3l-22.5 9.4c-1.6.6-3.2.7-4.7.4z"/><path class="st10" d="M105.3 46.3L77.6 63.2c-.6.4-1 .9-1.1 1.6 5-1 9.8-3.5 14.5-6.1 8.8-4.8 21.6-12.8 32.2-10.7 0 0 .6.1.8.2.1 0 .2 0 .2.1-4.7-3.7-12.4-4.6-18.1-4.7-3.1-.1-6.1.3-9 1l-.1.1-.1.1-20.6 11.1c-1.2.7-1.7 2.2-1 3.4.4.7 1 1.1 1.7 1.3.6.1 1.1 0 1.7-.2l26.6-14.1c0-.1 0-.1.1-.1.2 0 .2.2.2.3-.2-.3-.3-.2-.3-.2z"/><path class="st8" d="M104.4 19.8c0 .1-.8 5.3 4.8 6.8.2.1.4 0 .6-.1.2-.1.3-.3.3-.5 0-.8 0-1.5-.2-2.1-.6-.2-4.3-1.2-5.5-4.1z"/><path class="st9" d="M109.2 29.4l-.8-.3c-.6-.2-.9-.9-.7-1.4l1.2-3.2c.2-.6.9-.9 1.4-.7l.8.3c.6.2.9.9.7 1.4l-1.2 3.2c-.2.7-.9 1-1.4.7z"/><path class="st8" d="M111.8 25.4s-1.3 1.7-2 4.1c0 0-.4.1-.6-.1 0 0 .9-2.8 2.6-4z"/></g></svg>